<svg width="25" height="22" viewBox="0 0 25 22" fill="none" xmlns="http://www.w3.org/2000/svg">
<path d="M14.2442 7.55815H0.872093C0.395349 7.55815 0 7.1628 0 6.68606C0 6.20931 0.395349 5.81396 0.872093 5.81396H14.2442C14.7209 5.81396 15.1163 6.20931 15.1163 6.68606C15.1163 7.1628 14.7209 7.55815 14.2442 7.55815Z" fill="white"/>
<path d="M7.84904 16.8605H5.52346C5.04672 16.8605 4.65137 16.4651 4.65137 15.9884C4.65137 15.5116 5.04672 15.1163 5.52346 15.1163H7.84904C8.32579 15.1163 8.72113 15.5116 8.72113 15.9884C8.72113 16.4651 8.32579 16.8605 7.84904 16.8605Z" fill="white"/>
<path d="M15.407 16.8605H10.7559C10.2791 16.8605 9.88379 16.4651 9.88379 15.9884C9.88379 15.5116 10.2791 15.1163 10.7559 15.1163H15.407C15.8838 15.1163 16.2791 15.5116 16.2791 15.9884C16.2791 16.4651 15.8838 16.8605 15.407 16.8605Z" fill="white"/>
<path d="M18.9651 21.5116H6.03488C1.40698 21.5116 0 20.1163 0 15.5349V5.97674C0 1.39535 1.40698 0 6.03488 0H14.2442C14.7209 0 15.1163 0.395349 15.1163 0.872093C15.1163 1.34884 14.7209 1.74419 14.2442 1.74419H6.03488C2.38372 1.74419 1.74419 2.37209 1.74419 5.97674V15.5233C1.74419 19.1279 2.38372 19.7558 6.03488 19.7558H18.9535C22.6047 19.7558 23.2442 19.1279 23.2442 15.5233V10.7791C23.2442 10.3023 23.6395 9.90698 24.1163 9.90698C24.593 9.90698 24.9884 10.3023 24.9884 10.7791V15.5233C25 20.1163 23.593 21.5116 18.9651 21.5116Z" fill="white"/>
<path d="M24.1278 4.94185H17.7324C17.2557 4.94185 16.8604 4.5465 16.8604 4.06976C16.8604 3.59301 17.2557 3.19766 17.7324 3.19766H24.1278C24.6045 3.19766 24.9999 3.59301 24.9999 4.06976C24.9999 4.5465 24.6045 4.94185 24.1278 4.94185Z" fill="white"/>
<path d="M20.9302 8.13953C20.4535 8.13953 20.0581 7.74419 20.0581 7.26744V0.872093C20.0581 0.395349 20.4535 0 20.9302 0C21.4069 0 21.8023 0.395349 21.8023 0.872093V7.26744C21.8023 7.74419 21.4069 8.13953 20.9302 8.13953Z" fill="white"/>
</svg>
