<svg width="24" height="24" viewBox="0 0 24 24" fill="none" xmlns="http://www.w3.org/2000/svg">
<path opacity="0.6" d="M14.4 16.8C14.4 18.924 13.476 20.844 12 22.152C10.728 23.304 9.048 24 7.2 24C3.228 24 0 20.772 0 16.8C0 13.488 2.256 10.68 5.304 9.85201C6.132 11.94 7.908 13.548 10.104 14.148C10.704 14.316 11.34 14.4 12 14.4C12.66 14.4 13.296 14.316 13.896 14.148C14.22 14.964 14.4 15.864 14.4 16.8Z" fill="#292D32"/>
<path d="M19.1998 7.2C19.1998 8.136 19.0198 9.036 18.6958 9.852C17.8678 11.94 16.0918 13.548 13.8958 14.148C13.2958 14.316 12.6598 14.4 11.9998 14.4C11.3398 14.4 10.7038 14.316 10.1038 14.148C7.9078 13.548 6.1318 11.94 5.3038 9.852C4.9798 9.036 4.7998 8.136 4.7998 7.2C4.7998 3.228 8.0278 0 11.9998 0C15.9718 0 19.1998 3.228 19.1998 7.2Z" fill="#292D32"/>
<path opacity="0.4" d="M24 16.8C24 20.772 20.772 24 16.8 24C14.952 24 13.272 23.304 12 22.152C13.476 20.844 14.4 18.924 14.4 16.8C14.4 15.864 14.22 14.964 13.896 14.148C16.092 13.548 17.868 11.94 18.696 9.85201C21.744 10.68 24 13.488 24 16.8Z" fill="#292D32"/>
</svg>
