<svg width="25" height="23" viewBox="0 0 25 23" fill="none" xmlns="http://www.w3.org/2000/svg">
<path d="M21.8037 7.98669C19.6911 7.98669 18.8274 6.45146 19.8778 4.5684C20.4848 3.47694 20.123 2.08564 19.0608 1.46195L17.0415 0.274544C16.1194 -0.289174 14.9289 0.0466583 14.3803 0.994185L14.2519 1.22207C13.2014 3.10513 11.4739 3.10513 10.4118 1.22207L10.2834 0.994185C9.75814 0.0466583 8.56758 -0.289174 7.64549 0.274544L5.62621 1.46195C4.56405 2.08564 4.20222 3.48894 4.80917 4.58039C5.87133 6.45146 5.00759 7.98669 2.89494 7.98669C1.68105 7.98669 0.677246 9.00618 0.677246 10.2655V12.3765C0.677246 13.6239 1.66937 14.6554 2.89494 14.6554C5.00759 14.6554 5.87133 16.1906 4.80917 18.0736C4.20222 19.1651 4.56405 20.5564 5.62621 21.1801L7.64549 22.3675C8.56758 22.9312 9.75814 22.5954 10.3067 21.6479L10.4351 21.42C11.4856 19.5369 13.2131 19.5369 14.2752 21.42L14.4036 21.6479C14.9522 22.5954 16.1428 22.9312 17.0649 22.3675L19.0841 21.1801C20.1463 20.5564 20.5081 19.1531 19.9012 18.0736C18.839 16.1906 19.7028 14.6554 21.8154 14.6554C23.0293 14.6554 24.0331 13.6359 24.0331 12.3765V10.2655C24.0214 9.01817 23.0293 7.98669 21.8037 7.98669ZM12.3493 15.2191C10.26 15.2191 8.55591 13.4679 8.55591 11.321C8.55591 9.17409 10.26 7.42297 12.3493 7.42297C14.4386 7.42297 16.1428 9.17409 16.1428 11.321C16.1428 13.4679 14.4386 15.2191 12.3493 15.2191Z" fill="#292D32"/>
</svg>
