<svg width="92" height="101" viewBox="0 0 92 101" fill="none" xmlns="http://www.w3.org/2000/svg">
<path d="M88.2257 18.6541C80.6797 17.9042 73.1336 17.3418 65.5407 16.92V16.8731L64.5096 10.78C63.8066 6.46802 62.7754 0 51.8079 0H39.5281C28.6073 0 27.5761 6.1868 26.8262 10.7332L25.842 16.7325C21.4831 17.0137 17.1242 17.2949 12.7653 17.7167L3.2039 18.6541C1.23537 18.8416 -0.17072 20.5758 0.0167584 22.4975C0.204237 24.4191 1.89155 25.8252 3.86007 25.6377L13.4215 24.7003C37.9814 22.2631 62.7286 23.2005 87.5695 25.6846H87.9445C89.7255 25.6846 91.2722 24.3254 91.4597 22.4975C91.6003 20.5758 90.1942 18.8416 88.2257 18.6541Z" fill="black"/>
<path d="M79.6019 32.2933C78.4771 31.1215 76.9304 30.4653 75.3368 30.4653H16.0937C14.5002 30.4653 12.9066 31.1215 11.8286 32.2933C10.7506 33.465 10.1413 35.0586 10.235 36.699L13.141 84.7873C13.6565 91.9115 14.3127 100.817 30.6702 100.817H60.7603C77.1179 100.817 77.7745 91.9584 78.2896 84.7873L81.1955 36.7459C81.2893 35.0586 80.68 33.465 79.6019 32.2933ZM53.4955 77.335H37.8879C35.9665 77.335 34.3729 75.7415 34.3729 73.8198C34.3729 71.8981 35.9665 70.3046 37.8879 70.3046H53.4955C55.4172 70.3046 57.0108 71.8981 57.0108 73.8198C57.0108 75.7415 55.4172 77.335 53.4955 77.335ZM57.4326 58.5872H33.998C32.0763 58.5872 30.4827 56.9936 30.4827 55.0719C30.4827 53.1503 32.0763 51.5567 33.998 51.5567H57.4326C59.3542 51.5567 60.9478 53.1503 60.9478 55.0719C60.9478 56.9936 59.3542 58.5872 57.4326 58.5872Z" fill="black"/>
</svg>
